<svg width="170" height="36" viewBox="0 0 170 36" fill="none" xmlns="http://www.w3.org/2000/svg">
<path d="M57.382 17.2153H48.5685V19.7454H54.5097C54.2824 20.9353 53.6984 21.8849 52.7714 22.5716C51.7894 23.2988 50.5187 23.6668 48.9948 23.6668C47.7815 23.6668 46.6911 23.3991 45.7529 22.8725C44.8162 22.3459 44.0744 21.6042 43.5487 20.6684C43.0213 19.7301 42.7544 18.647 42.7544 17.4499C42.7544 16.2527 43.0181 15.2214 43.5374 14.2912C44.0558 13.3626 44.7935 12.6209 45.7302 12.0863C46.6685 11.5516 47.7508 11.2798 48.9479 11.2798C50.0213 11.2798 50.9903 11.4845 51.8275 11.8873C52.6654 12.2909 53.4379 12.9137 54.123 13.7396L54.2476 13.8892L55.9931 11.7886L55.9058 11.6851C54.1707 9.62568 51.8218 8.58142 48.9228 8.58142C47.2719 8.58142 45.7439 8.96726 44.3834 9.72921C43.0213 10.4912 41.9358 11.5564 41.1569 12.8951C40.3787 14.233 39.984 15.765 39.984 17.4491C39.984 19.1331 40.3747 20.6206 41.1447 21.9658C41.9156 23.3125 42.997 24.3859 44.3592 25.156C45.7205 25.926 47.2719 26.3159 48.9713 26.3159C50.5729 26.3159 52.0297 25.9875 53.302 25.3388C54.5792 24.6884 55.5895 23.7477 56.3053 22.5433C57.0204 21.3405 57.3836 19.9331 57.3836 18.3598V17.2145L57.382 17.2153Z" fill="white"/>
<path d="M64.5744 8.58142L56.7057 26.0045H59.6759L61.1391 22.6711H68.4343L69.8976 26.0045H72.8677L64.9991 8.58142H64.5744ZM62.1672 20.2372L64.775 14.2322L67.4046 20.2372H62.1672Z" fill="white"/>
<path d="M77.192 8.89284H74.4216V26.0045H83.9064V23.3546H77.192V8.89284Z" fill="white"/>
<path d="M92.5378 8.58142L84.6691 26.0045H87.6393L89.1025 22.6711H96.3977L97.861 26.0045H100.831L92.9625 8.58142H92.5378ZM90.1306 20.2372L92.7384 14.2322L95.368 20.2372H90.1306Z" fill="white"/>
<path d="M109.526 8.58142C107.89 8.58142 106.374 8.97615 105.021 9.75428C103.667 10.5324 102.59 11.6098 101.82 12.9558C101.05 14.3017 100.659 15.8135 100.659 17.4491C100.659 19.0846 101.05 20.5964 101.82 21.9423C102.59 23.2883 103.667 24.3657 105.021 25.1438C106.375 25.922 107.891 26.3167 109.526 26.3167C111.016 26.3167 112.421 25.9794 113.702 25.3153L113.789 25.27V21.9431L113.522 22.1704C112.996 22.6193 112.383 22.9769 111.7 23.2333C111.018 23.4889 110.287 23.6191 109.526 23.6191C108.378 23.6191 107.329 23.3441 106.407 22.8021C105.485 22.2594 104.75 21.5136 104.223 20.5834C103.695 19.6532 103.428 18.5993 103.428 17.4499C103.428 16.3005 103.695 15.2457 104.223 14.3163C104.749 13.3861 105.485 12.6403 106.407 12.0976C107.328 11.5556 108.378 11.2806 109.526 11.2806C110.287 11.2806 111.018 11.41 111.7 11.6656C112.383 11.9212 112.996 12.2788 113.522 12.7285L113.789 12.9558V9.62891L113.702 9.58361C112.421 8.91953 111.016 8.58223 109.526 8.58223V8.58142Z" fill="white"/>
<path d="M126.416 15.4406H119.042V8.89284H116.272V26.0045H119.042V18.0905H126.416V26.0045H129.186V8.89284H126.416V15.4406Z" fill="white"/>
<path d="M138.585 8.58142L130.716 26.0045H133.687L135.15 22.6711H142.445L143.908 26.0045H146.878L139.01 8.58142H138.585ZM136.178 20.2372L138.786 14.2322L141.415 20.2372H136.178Z" fill="white"/>
<path d="M151.202 8.89284H148.432V26.0045H151.202V8.89284Z" fill="white"/>
<path d="M166.899 8.89284V20.4402L155.064 8.62834L155.016 8.58142H154.572V26.0045H157.342V14.457L169.177 26.269L169.224 26.3159H169.668V8.89284H166.899Z" fill="white"/>
<path d="M18.3977 12.3993L15.2358 14.233L5.61193 8.68092L15.2358 3.49121L16.1879 4.01213L24.8695 8.69952L27.2411 9.984L29.5811 8.63481L15.2358 0.889893L0.904315 8.63481L15.2367 16.8893L20.7078 13.7274L18.3977 12.3993Z" fill="white"/>
<path d="M15.235 0.889893H15.2358H15.2367H15.235Z" fill="white"/>
<path d="M8.97116 17.6035L12.2091 19.4696V30.9531L2.31013 24.8526V11.1075L0 9.77612L0.00647095 26.1638L0.00727982 26.163L14.5111 35.0816V18.1382L8.97116 14.948V17.6035Z" fill="white"/>
<path d="M15.9549 18.1487V24.6092L18.261 23.281V19.4801L28.16 13.7736V24.8987L18.261 31L15.9549 32.4107V35.1099L30.4596 26.1913V9.77531L28.7165 10.788L15.9549 18.1487Z" fill="white"/>
</svg>
